<mxfile host="Electron" agent="Mozilla/5.0 (Windows NT 10.0; Win64; x64) AppleWebKit/537.36 (KHTML, like Gecko) draw.io/24.5.3 Chrome/124.0.6367.207 Electron/30.0.6 Safari/537.36" modified="2024-12-01T06:04:58.022Z" version="24.5.3" etag="5bQ6K42x4BpTrJ5vblSX" type="device">
  <diagram name="Страница — 1" id="hVLYIzXhL_AbBxCYP6Br">
    <mxGraphModel dx="3195" dy="356" grid="0" gridSize="10" guides="1" tooltips="1" connect="1" arrows="1" fold="1" page="1" pageScale="1" pageWidth="1169" pageHeight="827" math="0" shadow="0">
      <root>
        <mxCell id="0" />
        <mxCell id="1" parent="0" />
        <mxCell id="fmOP2tGpgwe-xgpvxN7F-2" value="employees" style="swimlane;fontStyle=0;childLayout=stackLayout;horizontal=1;startSize=30;horizontalStack=0;resizeParent=1;resizeParentMax=0;resizeLast=0;collapsible=1;marginBottom=0;whiteSpace=wrap;html=1;" parent="1" vertex="1">
          <mxGeometry x="-765" y="1001" width="171" height="510" as="geometry" />
        </mxCell>
        <mxCell id="fmOP2tGpgwe-xgpvxN7F-3" value="+ id: integer (PK) UNIQUE" style="text;strokeColor=none;fillColor=none;align=left;verticalAlign=middle;spacingLeft=4;spacingRight=4;overflow=hidden;points=[[0,0.5],[1,0.5]];portConstraint=eastwest;rotatable=0;whiteSpace=wrap;html=1;" parent="fmOP2tGpgwe-xgpvxN7F-2" vertex="1">
          <mxGeometry y="30" width="171" height="30" as="geometry" />
        </mxCell>
        <mxCell id="fmOP2tGpgwe-xgpvxN7F-36" value="+ post_id: integer (FK)" style="text;strokeColor=none;fillColor=none;align=left;verticalAlign=middle;spacingLeft=4;spacingRight=4;overflow=hidden;points=[[0,0.5],[1,0.5]];portConstraint=eastwest;rotatable=0;whiteSpace=wrap;html=1;" parent="fmOP2tGpgwe-xgpvxN7F-2" vertex="1">
          <mxGeometry y="60" width="171" height="30" as="geometry" />
        </mxCell>
        <mxCell id="fmOP2tGpgwe-xgpvxN7F-50" value="&lt;span style=&quot;text-align: center;&quot;&gt;+ department&lt;/span&gt;_id: integer (FK)" style="text;strokeColor=none;fillColor=none;align=left;verticalAlign=middle;spacingLeft=4;spacingRight=4;overflow=hidden;points=[[0,0.5],[1,0.5]];portConstraint=eastwest;rotatable=0;whiteSpace=wrap;html=1;" parent="fmOP2tGpgwe-xgpvxN7F-2" vertex="1">
          <mxGeometry y="90" width="171" height="30" as="geometry" />
        </mxCell>
        <mxCell id="fmOP2tGpgwe-xgpvxN7F-4" value="+ first_name: varchar" style="text;strokeColor=none;fillColor=none;align=left;verticalAlign=middle;spacingLeft=4;spacingRight=4;overflow=hidden;points=[[0,0.5],[1,0.5]];portConstraint=eastwest;rotatable=0;whiteSpace=wrap;html=1;" parent="fmOP2tGpgwe-xgpvxN7F-2" vertex="1">
          <mxGeometry y="120" width="171" height="30" as="geometry" />
        </mxCell>
        <mxCell id="fmOP2tGpgwe-xgpvxN7F-8" value="+ middle_name: varchar" style="text;strokeColor=none;fillColor=none;align=left;verticalAlign=middle;spacingLeft=4;spacingRight=4;overflow=hidden;points=[[0,0.5],[1,0.5]];portConstraint=eastwest;rotatable=0;whiteSpace=wrap;html=1;" parent="fmOP2tGpgwe-xgpvxN7F-2" vertex="1">
          <mxGeometry y="150" width="171" height="30" as="geometry" />
        </mxCell>
        <mxCell id="fmOP2tGpgwe-xgpvxN7F-7" value="+ last_name: varchar" style="text;strokeColor=none;fillColor=none;align=left;verticalAlign=middle;spacingLeft=4;spacingRight=4;overflow=hidden;points=[[0,0.5],[1,0.5]];portConstraint=eastwest;rotatable=0;whiteSpace=wrap;html=1;" parent="fmOP2tGpgwe-xgpvxN7F-2" vertex="1">
          <mxGeometry y="180" width="171" height="30" as="geometry" />
        </mxCell>
        <mxCell id="fmOP2tGpgwe-xgpvxN7F-9" value="+ birthdate: date" style="text;strokeColor=none;fillColor=none;align=left;verticalAlign=middle;spacingLeft=4;spacingRight=4;overflow=hidden;points=[[0,0.5],[1,0.5]];portConstraint=eastwest;rotatable=0;whiteSpace=wrap;html=1;" parent="fmOP2tGpgwe-xgpvxN7F-2" vertex="1">
          <mxGeometry y="210" width="171" height="30" as="geometry" />
        </mxCell>
        <mxCell id="fmOP2tGpgwe-xgpvxN7F-20" value="+ sex: varchar" style="text;strokeColor=none;fillColor=none;align=left;verticalAlign=middle;spacingLeft=4;spacingRight=4;overflow=hidden;points=[[0,0.5],[1,0.5]];portConstraint=eastwest;rotatable=0;whiteSpace=wrap;html=1;" parent="fmOP2tGpgwe-xgpvxN7F-2" vertex="1">
          <mxGeometry y="240" width="171" height="30" as="geometry" />
        </mxCell>
        <mxCell id="fmOP2tGpgwe-xgpvxN7F-12" value="+ phone_number: varchar" style="text;strokeColor=none;fillColor=none;align=left;verticalAlign=middle;spacingLeft=4;spacingRight=4;overflow=hidden;points=[[0,0.5],[1,0.5]];portConstraint=eastwest;rotatable=0;whiteSpace=wrap;html=1;" parent="fmOP2tGpgwe-xgpvxN7F-2" vertex="1">
          <mxGeometry y="270" width="171" height="30" as="geometry" />
        </mxCell>
        <mxCell id="fmOP2tGpgwe-xgpvxN7F-13" value="+ city: varchar" style="text;strokeColor=none;fillColor=none;align=left;verticalAlign=middle;spacingLeft=4;spacingRight=4;overflow=hidden;points=[[0,0.5],[1,0.5]];portConstraint=eastwest;rotatable=0;whiteSpace=wrap;html=1;" parent="fmOP2tGpgwe-xgpvxN7F-2" vertex="1">
          <mxGeometry y="300" width="171" height="30" as="geometry" />
        </mxCell>
        <mxCell id="fmOP2tGpgwe-xgpvxN7F-14" value="+ address: varchar" style="text;strokeColor=none;fillColor=none;align=left;verticalAlign=middle;spacingLeft=4;spacingRight=4;overflow=hidden;points=[[0,0.5],[1,0.5]];portConstraint=eastwest;rotatable=0;whiteSpace=wrap;html=1;" parent="fmOP2tGpgwe-xgpvxN7F-2" vertex="1">
          <mxGeometry y="330" width="171" height="30" as="geometry" />
        </mxCell>
        <mxCell id="fmOP2tGpgwe-xgpvxN7F-15" value="+ tg_username: varchar" style="text;strokeColor=none;fillColor=none;align=left;verticalAlign=middle;spacingLeft=4;spacingRight=4;overflow=hidden;points=[[0,0.5],[1,0.5]];portConstraint=eastwest;rotatable=0;whiteSpace=wrap;html=1;" parent="fmOP2tGpgwe-xgpvxN7F-2" vertex="1">
          <mxGeometry y="360" width="171" height="30" as="geometry" />
        </mxCell>
        <mxCell id="fmOP2tGpgwe-xgpvxN7F-16" value="+ email: email" style="text;strokeColor=none;fillColor=none;align=left;verticalAlign=middle;spacingLeft=4;spacingRight=4;overflow=hidden;points=[[0,0.5],[1,0.5]];portConstraint=eastwest;rotatable=0;whiteSpace=wrap;html=1;" parent="fmOP2tGpgwe-xgpvxN7F-2" vertex="1">
          <mxGeometry y="390" width="171" height="30" as="geometry" />
        </mxCell>
        <mxCell id="fmOP2tGpgwe-xgpvxN7F-17" value="+ is_on_sick_leave: bool" style="text;strokeColor=none;fillColor=none;align=left;verticalAlign=middle;spacingLeft=4;spacingRight=4;overflow=hidden;points=[[0,0.5],[1,0.5]];portConstraint=eastwest;rotatable=0;whiteSpace=wrap;html=1;" parent="fmOP2tGpgwe-xgpvxN7F-2" vertex="1">
          <mxGeometry y="420" width="171" height="30" as="geometry" />
        </mxCell>
        <mxCell id="fmOP2tGpgwe-xgpvxN7F-53" value="+ is_on_leave: bool" style="text;strokeColor=none;fillColor=none;align=left;verticalAlign=middle;spacingLeft=4;spacingRight=4;overflow=hidden;points=[[0,0.5],[1,0.5]];portConstraint=eastwest;rotatable=0;whiteSpace=wrap;html=1;" parent="fmOP2tGpgwe-xgpvxN7F-2" vertex="1">
          <mxGeometry y="450" width="171" height="30" as="geometry" />
        </mxCell>
        <mxCell id="g1QGNBopC8x5ZGNIRTyk-13" style="edgeStyle=orthogonalEdgeStyle;rounded=0;orthogonalLoop=1;jettySize=auto;html=1;exitX=0;exitY=0.5;exitDx=0;exitDy=0;entryX=0;entryY=0.5;entryDx=0;entryDy=0;" parent="fmOP2tGpgwe-xgpvxN7F-2" source="g1QGNBopC8x5ZGNIRTyk-1" target="fmOP2tGpgwe-xgpvxN7F-3" edge="1">
          <mxGeometry relative="1" as="geometry">
            <Array as="points">
              <mxPoint x="-20" y="495" />
              <mxPoint x="-20" y="45" />
            </Array>
          </mxGeometry>
        </mxCell>
        <mxCell id="g1QGNBopC8x5ZGNIRTyk-1" value="+ boss_id: integer (FK)" style="text;strokeColor=none;fillColor=none;align=left;verticalAlign=middle;spacingLeft=4;spacingRight=4;overflow=hidden;points=[[0,0.5],[1,0.5]];portConstraint=eastwest;rotatable=0;whiteSpace=wrap;html=1;" parent="fmOP2tGpgwe-xgpvxN7F-2" vertex="1">
          <mxGeometry y="480" width="171" height="30" as="geometry" />
        </mxCell>
        <mxCell id="fmOP2tGpgwe-xgpvxN7F-21" value="roles" style="swimlane;fontStyle=0;childLayout=stackLayout;horizontal=1;startSize=30;horizontalStack=0;resizeParent=1;resizeParentMax=0;resizeLast=0;collapsible=1;marginBottom=0;whiteSpace=wrap;html=1;" parent="1" vertex="1">
          <mxGeometry x="-314" y="1031" width="170" height="90" as="geometry" />
        </mxCell>
        <mxCell id="fmOP2tGpgwe-xgpvxN7F-22" value="+ id: integer (PK) UNIQUE" style="text;strokeColor=none;fillColor=none;align=left;verticalAlign=middle;spacingLeft=4;spacingRight=4;overflow=hidden;points=[[0,0.5],[1,0.5]];portConstraint=eastwest;rotatable=0;whiteSpace=wrap;html=1;" parent="fmOP2tGpgwe-xgpvxN7F-21" vertex="1">
          <mxGeometry y="30" width="170" height="30" as="geometry" />
        </mxCell>
        <mxCell id="fmOP2tGpgwe-xgpvxN7F-23" value="+ name: varchar" style="text;strokeColor=none;fillColor=none;align=left;verticalAlign=middle;spacingLeft=4;spacingRight=4;overflow=hidden;points=[[0,0.5],[1,0.5]];portConstraint=eastwest;rotatable=0;whiteSpace=wrap;html=1;" parent="fmOP2tGpgwe-xgpvxN7F-21" vertex="1">
          <mxGeometry y="60" width="170" height="30" as="geometry" />
        </mxCell>
        <mxCell id="fmOP2tGpgwe-xgpvxN7F-38" value="posts" style="swimlane;fontStyle=0;childLayout=stackLayout;horizontal=1;startSize=30;horizontalStack=0;resizeParent=1;resizeParentMax=0;resizeLast=0;collapsible=1;marginBottom=0;whiteSpace=wrap;html=1;" parent="1" vertex="1">
          <mxGeometry x="-534" y="971" width="172" height="120" as="geometry" />
        </mxCell>
        <mxCell id="fmOP2tGpgwe-xgpvxN7F-39" value="+ id: integer (PK) UNIQUE" style="text;strokeColor=none;fillColor=none;align=left;verticalAlign=middle;spacingLeft=4;spacingRight=4;overflow=hidden;points=[[0,0.5],[1,0.5]];portConstraint=eastwest;rotatable=0;whiteSpace=wrap;html=1;" parent="fmOP2tGpgwe-xgpvxN7F-38" vertex="1">
          <mxGeometry y="30" width="172" height="30" as="geometry" />
        </mxCell>
        <mxCell id="fmOP2tGpgwe-xgpvxN7F-40" value="+ name: varchar" style="text;strokeColor=none;fillColor=none;align=left;verticalAlign=middle;spacingLeft=4;spacingRight=4;overflow=hidden;points=[[0,0.5],[1,0.5]];portConstraint=eastwest;rotatable=0;whiteSpace=wrap;html=1;" parent="fmOP2tGpgwe-xgpvxN7F-38" vertex="1">
          <mxGeometry y="60" width="172" height="30" as="geometry" />
        </mxCell>
        <mxCell id="fmOP2tGpgwe-xgpvxN7F-41" value="+ role_id: integer (FK)" style="text;strokeColor=none;fillColor=none;align=left;verticalAlign=middle;spacingLeft=4;spacingRight=4;overflow=hidden;points=[[0,0.5],[1,0.5]];portConstraint=eastwest;rotatable=0;whiteSpace=wrap;html=1;" parent="fmOP2tGpgwe-xgpvxN7F-38" vertex="1">
          <mxGeometry y="90" width="172" height="30" as="geometry" />
        </mxCell>
        <mxCell id="fmOP2tGpgwe-xgpvxN7F-44" style="edgeStyle=orthogonalEdgeStyle;rounded=0;orthogonalLoop=1;jettySize=auto;html=1;exitX=0;exitY=0.5;exitDx=0;exitDy=0;entryX=1;entryY=0.5;entryDx=0;entryDy=0;" parent="1" source="fmOP2tGpgwe-xgpvxN7F-22" target="fmOP2tGpgwe-xgpvxN7F-41" edge="1">
          <mxGeometry relative="1" as="geometry" />
        </mxCell>
        <mxCell id="fmOP2tGpgwe-xgpvxN7F-45" value="departments" style="swimlane;fontStyle=0;childLayout=stackLayout;horizontal=1;startSize=30;horizontalStack=0;resizeParent=1;resizeParentMax=0;resizeLast=0;collapsible=1;marginBottom=0;whiteSpace=wrap;html=1;" parent="1" vertex="1">
          <mxGeometry x="-534" y="1171" width="170" height="120" as="geometry" />
        </mxCell>
        <mxCell id="fmOP2tGpgwe-xgpvxN7F-46" value="+ id: int (PK)" style="text;strokeColor=none;fillColor=none;align=left;verticalAlign=middle;spacingLeft=4;spacingRight=4;overflow=hidden;points=[[0,0.5],[1,0.5]];portConstraint=eastwest;rotatable=0;whiteSpace=wrap;html=1;" parent="fmOP2tGpgwe-xgpvxN7F-45" vertex="1">
          <mxGeometry y="30" width="170" height="30" as="geometry" />
        </mxCell>
        <mxCell id="fmOP2tGpgwe-xgpvxN7F-47" value="+ name: varchar" style="text;strokeColor=none;fillColor=none;align=left;verticalAlign=middle;spacingLeft=4;spacingRight=4;overflow=hidden;points=[[0,0.5],[1,0.5]];portConstraint=eastwest;rotatable=0;whiteSpace=wrap;html=1;" parent="fmOP2tGpgwe-xgpvxN7F-45" vertex="1">
          <mxGeometry y="60" width="170" height="30" as="geometry" />
        </mxCell>
        <mxCell id="fmOP2tGpgwe-xgpvxN7F-49" value="+ path: varchar" style="text;strokeColor=none;fillColor=none;align=left;verticalAlign=middle;spacingLeft=4;spacingRight=4;overflow=hidden;points=[[0,0.5],[1,0.5]];portConstraint=eastwest;rotatable=0;whiteSpace=wrap;html=1;" parent="fmOP2tGpgwe-xgpvxN7F-45" vertex="1">
          <mxGeometry y="90" width="170" height="30" as="geometry" />
        </mxCell>
        <mxCell id="fmOP2tGpgwe-xgpvxN7F-56" value="&lt;span style=&quot;text-align: left;&quot;&gt;on_sick_leave&lt;/span&gt;" style="swimlane;fontStyle=0;childLayout=stackLayout;horizontal=1;startSize=30;horizontalStack=0;resizeParent=1;resizeParentMax=0;resizeLast=0;collapsible=1;marginBottom=0;whiteSpace=wrap;html=1;" parent="1" vertex="1">
          <mxGeometry x="-1024" y="971" width="168" height="150" as="geometry" />
        </mxCell>
        <mxCell id="fmOP2tGpgwe-xgpvxN7F-57" value="+ id: integer (PK) UNIQUE" style="text;strokeColor=none;fillColor=none;align=left;verticalAlign=middle;spacingLeft=4;spacingRight=4;overflow=hidden;points=[[0,0.5],[1,0.5]];portConstraint=eastwest;rotatable=0;whiteSpace=wrap;html=1;" parent="fmOP2tGpgwe-xgpvxN7F-56" vertex="1">
          <mxGeometry y="30" width="168" height="30" as="geometry" />
        </mxCell>
        <mxCell id="a7XCTEtsQs9K9PUOPrVy-1" value="+ employee_id: integer (FK)" style="text;strokeColor=none;fillColor=none;align=left;verticalAlign=middle;spacingLeft=4;spacingRight=4;overflow=hidden;points=[[0,0.5],[1,0.5]];portConstraint=eastwest;rotatable=0;whiteSpace=wrap;html=1;" parent="fmOP2tGpgwe-xgpvxN7F-56" vertex="1">
          <mxGeometry y="60" width="168" height="30" as="geometry" />
        </mxCell>
        <mxCell id="fmOP2tGpgwe-xgpvxN7F-58" value="+ date_from: date" style="text;strokeColor=none;fillColor=none;align=left;verticalAlign=middle;spacingLeft=4;spacingRight=4;overflow=hidden;points=[[0,0.5],[1,0.5]];portConstraint=eastwest;rotatable=0;whiteSpace=wrap;html=1;" parent="fmOP2tGpgwe-xgpvxN7F-56" vertex="1">
          <mxGeometry y="90" width="168" height="30" as="geometry" />
        </mxCell>
        <mxCell id="fmOP2tGpgwe-xgpvxN7F-59" value="+ date_to: date" style="text;strokeColor=none;fillColor=none;align=left;verticalAlign=middle;spacingLeft=4;spacingRight=4;overflow=hidden;points=[[0,0.5],[1,0.5]];portConstraint=eastwest;rotatable=0;whiteSpace=wrap;html=1;" parent="fmOP2tGpgwe-xgpvxN7F-56" vertex="1">
          <mxGeometry y="120" width="168" height="30" as="geometry" />
        </mxCell>
        <mxCell id="fmOP2tGpgwe-xgpvxN7F-60" value="&lt;span style=&quot;text-align: left;&quot;&gt;on_leaves&lt;/span&gt;" style="swimlane;fontStyle=0;childLayout=stackLayout;horizontal=1;startSize=30;horizontalStack=0;resizeParent=1;resizeParentMax=0;resizeLast=0;collapsible=1;marginBottom=0;whiteSpace=wrap;html=1;" parent="1" vertex="1">
          <mxGeometry x="-1024" y="1201" width="168" height="150" as="geometry" />
        </mxCell>
        <mxCell id="fmOP2tGpgwe-xgpvxN7F-61" value="+ id: integer (PK) UNIQUE" style="text;strokeColor=none;fillColor=none;align=left;verticalAlign=middle;spacingLeft=4;spacingRight=4;overflow=hidden;points=[[0,0.5],[1,0.5]];portConstraint=eastwest;rotatable=0;whiteSpace=wrap;html=1;" parent="fmOP2tGpgwe-xgpvxN7F-60" vertex="1">
          <mxGeometry y="30" width="168" height="30" as="geometry" />
        </mxCell>
        <mxCell id="a7XCTEtsQs9K9PUOPrVy-6" value="+ employee_id: integer (FK)" style="text;strokeColor=none;fillColor=none;align=left;verticalAlign=middle;spacingLeft=4;spacingRight=4;overflow=hidden;points=[[0,0.5],[1,0.5]];portConstraint=eastwest;rotatable=0;whiteSpace=wrap;html=1;" parent="fmOP2tGpgwe-xgpvxN7F-60" vertex="1">
          <mxGeometry y="60" width="168" height="30" as="geometry" />
        </mxCell>
        <mxCell id="fmOP2tGpgwe-xgpvxN7F-63" value="+ date_from: date" style="text;strokeColor=none;fillColor=none;align=left;verticalAlign=middle;spacingLeft=4;spacingRight=4;overflow=hidden;points=[[0,0.5],[1,0.5]];portConstraint=eastwest;rotatable=0;whiteSpace=wrap;html=1;" parent="fmOP2tGpgwe-xgpvxN7F-60" vertex="1">
          <mxGeometry y="90" width="168" height="30" as="geometry" />
        </mxCell>
        <mxCell id="fmOP2tGpgwe-xgpvxN7F-62" value="+ date_to: date" style="text;strokeColor=none;fillColor=none;align=left;verticalAlign=middle;spacingLeft=4;spacingRight=4;overflow=hidden;points=[[0,0.5],[1,0.5]];portConstraint=eastwest;rotatable=0;whiteSpace=wrap;html=1;" parent="fmOP2tGpgwe-xgpvxN7F-60" vertex="1">
          <mxGeometry y="120" width="168" height="30" as="geometry" />
        </mxCell>
        <mxCell id="a7XCTEtsQs9K9PUOPrVy-7" style="edgeStyle=orthogonalEdgeStyle;rounded=0;orthogonalLoop=1;jettySize=auto;html=1;entryX=0;entryY=0.5;entryDx=0;entryDy=0;" parent="1" source="a7XCTEtsQs9K9PUOPrVy-1" target="fmOP2tGpgwe-xgpvxN7F-3" edge="1">
          <mxGeometry relative="1" as="geometry" />
        </mxCell>
        <mxCell id="a7XCTEtsQs9K9PUOPrVy-8" style="edgeStyle=orthogonalEdgeStyle;rounded=0;orthogonalLoop=1;jettySize=auto;html=1;entryX=0;entryY=0.5;entryDx=0;entryDy=0;" parent="1" source="a7XCTEtsQs9K9PUOPrVy-6" target="fmOP2tGpgwe-xgpvxN7F-3" edge="1">
          <mxGeometry relative="1" as="geometry" />
        </mxCell>
        <mxCell id="a7XCTEtsQs9K9PUOPrVy-10" style="edgeStyle=orthogonalEdgeStyle;rounded=0;orthogonalLoop=1;jettySize=auto;html=1;entryX=1;entryY=0.5;entryDx=0;entryDy=0;" parent="1" source="fmOP2tGpgwe-xgpvxN7F-46" target="fmOP2tGpgwe-xgpvxN7F-50" edge="1">
          <mxGeometry relative="1" as="geometry" />
        </mxCell>
        <mxCell id="a7XCTEtsQs9K9PUOPrVy-13" style="edgeStyle=orthogonalEdgeStyle;rounded=0;orthogonalLoop=1;jettySize=auto;html=1;entryX=1;entryY=0.5;entryDx=0;entryDy=0;" parent="1" source="fmOP2tGpgwe-xgpvxN7F-39" target="fmOP2tGpgwe-xgpvxN7F-36" edge="1">
          <mxGeometry relative="1" as="geometry" />
        </mxCell>
      </root>
    </mxGraphModel>
  </diagram>
</mxfile>
